<?xml version="1.0" standalone="no"?>
<!DOCTYPE svg PUBLIC "-//W3C//DTD SVG 20010904//EN"
 "http://www.w3.org/TR/2001/REC-SVG-20010904/DTD/svg10.dtd">
<svg version="1.0" xmlns="http://www.w3.org/2000/svg"
 width="920.000000pt" height="840.000000pt" viewBox="0 0 920.000000 840.000000"
 preserveAspectRatio="xMidYMid meet">

<g transform="translate(0.000000,840.000000) scale(0.100000,-0.100000)"
fill="#FFFFFF" stroke="none">
<path d="M5063 8118 c-29 -33 -90 -147 -98 -184 -3 -18 -19 -52 -35 -77 -16
-25 -36 -70 -45 -99 -8 -29 -27 -69 -40 -90 -14 -21 -33 -60 -43 -86 -14 -38
-24 -49 -52 -59 -37 -13 -213 -16 -242 -5 -26 10 -93 128 -112 197 -10 33 -28
78 -41 100 -12 22 -30 65 -38 95 -19 65 -68 159 -97 185 -19 17 -24 17 -92 2
-40 -9 -107 -19 -148 -22 -140 -11 -324 -45 -350 -64 -23 -17 -25 -26 -32
-137 -4 -65 -13 -202 -20 -302 l-14 -184 -45 -43 c-35 -33 -63 -48 -116 -64
-39 -12 -82 -21 -97 -21 -43 0 -93 26 -110 57 -8 15 -44 60 -80 98 -69 74
-125 136 -202 223 -26 29 -57 55 -69 58 -34 8 -125 -22 -179 -61 -27 -19 -55
-35 -62 -35 -6 0 -35 -16 -64 -36 -28 -19 -69 -42 -90 -49 -59 -21 -150 -85
-156 -111 -3 -13 1 -42 10 -66 8 -24 20 -69 26 -100 6 -32 22 -77 35 -101 12
-24 30 -79 39 -121 16 -79 28 -108 54 -138 10 -13 13 -31 9 -64 -4 -43 -11
-53 -73 -110 -116 -106 -160 -116 -259 -59 -33 19 -87 47 -120 64 -33 16 -72
38 -86 50 -14 11 -51 30 -82 41 -30 11 -61 28 -69 37 -18 22 -71 43 -108 43
-32 0 -38 -5 -113 -91 -21 -24 -72 -80 -112 -124 -132 -143 -185 -207 -185
-224 0 -29 39 -100 65 -117 13 -9 27 -24 30 -33 3 -9 22 -35 43 -58 20 -22 57
-69 82 -103 25 -35 61 -79 80 -99 47 -48 100 -128 100 -150 0 -10 -7 -24 -16
-32 -8 -7 -26 -33 -39 -58 -13 -25 -43 -68 -68 -96 l-44 -49 -134 18 c-74 10
-190 30 -259 44 -251 51 -258 48 -305 -107 -9 -29 -25 -65 -35 -80 -11 -14
-26 -55 -34 -90 -8 -34 -27 -80 -41 -101 -31 -45 -48 -111 -40 -152 5 -20 18
-34 46 -49 22 -11 60 -35 85 -54 25 -19 52 -35 59 -35 8 0 29 -13 47 -29 18
-15 55 -38 83 -50 27 -12 59 -30 70 -40 11 -10 38 -28 61 -39 22 -11 57 -39
78 -62 38 -42 38 -42 31 -109 -11 -117 -15 -129 -59 -171 -42 -42 -86 -60
-145 -60 -106 0 -451 -78 -483 -108 -15 -15 -17 -44 -18 -252 -1 -343 -3 -317
23 -334 12 -8 54 -20 92 -26 39 -6 110 -22 158 -36 48 -13 136 -31 195 -40 59
-8 122 -19 140 -25 48 -16 90 -55 97 -92 3 -17 13 -64 21 -103 16 -68 15 -72
-4 -110 -25 -49 -37 -60 -92 -79 -24 -8 -57 -26 -74 -39 -17 -13 -40 -26 -52
-30 -11 -3 -51 -26 -89 -51 -37 -25 -72 -45 -78 -45 -16 0 -145 -89 -151 -105
-3 -8 3 -34 13 -57 10 -24 23 -65 30 -93 7 -27 23 -69 37 -92 13 -23 31 -71
39 -108 17 -70 61 -159 95 -190 19 -17 27 -18 113 -6 50 7 169 19 262 27 94 9
192 18 218 21 27 3 60 0 76 -6 33 -14 99 -91 122 -142 10 -20 22 -40 28 -43
19 -12 12 -57 -13 -90 -13 -17 -41 -49 -60 -71 -34 -37 -137 -158 -248 -290
-65 -77 -63 -124 10 -196 20 -20 54 -56 74 -80 230 -270 232 -272 266 -266 37
7 167 62 200 86 15 10 50 26 79 35 28 10 63 26 76 36 13 10 48 30 78 43 30 13
72 36 93 50 55 38 93 35 151 -10 87 -68 145 -126 151 -149 8 -31 -22 -147 -56
-214 -15 -30 -33 -80 -40 -110 -7 -30 -25 -78 -41 -105 -35 -62 -49 -122 -37
-155 10 -27 106 -94 151 -105 15 -4 46 -22 69 -41 24 -19 48 -34 54 -34 7 0
35 -16 64 -36 28 -19 71 -44 95 -54 23 -10 46 -23 49 -29 4 -6 16 -11 26 -11
24 0 103 53 123 82 8 13 92 101 187 197 198 200 196 199 329 162 153 -43 154
-43 157 -377 2 -224 4 -265 18 -287 20 -29 52 -44 121 -53 28 -3 93 -17 145
-29 140 -35 287 -58 327 -52 49 8 61 21 80 86 8 31 26 70 39 86 12 17 29 56
37 88 8 32 29 79 46 106 17 26 31 54 31 62 0 32 50 116 88 152 l42 37 103 0
c131 0 156 -13 186 -97 12 -32 32 -78 45 -103 13 -25 29 -67 35 -93 6 -27 25
-72 40 -100 16 -29 32 -68 36 -87 11 -54 33 -88 66 -106 37 -18 58 -17 220 20
64 14 168 32 231 40 64 7 125 19 137 26 39 20 51 69 52 207 0 70 4 199 7 286
8 179 5 173 95 202 28 9 65 26 81 38 16 11 50 22 77 25 48 4 49 4 106 -55 32
-32 92 -97 133 -143 252 -282 261 -288 330 -230 19 17 40 30 46 30 6 0 35 16
64 36 29 20 68 40 85 45 18 5 52 23 76 39 24 16 65 37 91 46 61 20 98 63 98
112 0 20 -14 69 -31 107 -16 39 -39 106 -50 150 -11 44 -34 113 -50 154 -33
82 -45 146 -35 185 9 37 179 176 214 176 33 0 102 -31 120 -53 8 -9 35 -23 61
-32 26 -8 63 -27 81 -40 18 -14 49 -30 69 -36 20 -6 52 -23 71 -38 19 -15 63
-40 97 -56 l62 -27 45 21 c25 11 51 32 58 45 11 21 104 128 188 217 128 135
130 138 130 172 0 24 -9 44 -32 69 -18 19 -53 61 -78 93 -25 31 -63 79 -85
106 -22 27 -58 72 -80 100 -22 28 -55 66 -74 84 -27 27 -35 44 -39 83 -4 44
-1 52 27 84 17 19 39 55 49 79 37 85 75 95 246 68 66 -10 148 -25 181 -33 81
-19 251 -40 270 -33 26 11 85 114 101 179 9 35 28 86 44 113 15 28 33 72 39
98 6 27 23 66 38 88 21 32 24 44 16 62 -19 40 -124 116 -238 171 -28 13 -57
31 -65 41 -7 9 -32 26 -54 37 -23 11 -54 32 -70 45 -16 14 -47 31 -68 40 -55
22 -72 60 -64 137 14 122 23 167 37 181 31 31 216 76 426 104 157 21 185 30
201 66 6 12 12 138 13 281 5 339 15 321 -197 349 -67 8 -166 28 -221 44 -55
16 -120 32 -144 36 -67 11 -79 21 -114 98 -43 95 -61 176 -46 205 6 12 16 22
21 22 4 0 28 15 52 33 24 18 59 39 78 46 19 8 51 26 70 41 19 15 56 36 82 48
26 11 63 32 81 46 19 14 39 26 46 26 22 0 90 40 105 62 25 36 19 89 -18 159
-18 35 -38 87 -45 114 -6 28 -25 79 -41 115 -16 36 -34 83 -40 105 -19 77 -25
80 -142 78 -104 -2 -393 -35 -458 -53 -88 -24 -161 4 -195 77 -10 21 -33 55
-51 76 -27 30 -34 45 -34 79 0 36 6 49 35 78 41 41 77 81 160 181 33 40 91
105 129 145 47 50 69 81 69 98 0 25 -25 56 -245 307 -49 55 -88 104 -88 109 0
15 -56 40 -90 40 -33 0 -76 -19 -125 -55 -16 -12 -53 -30 -82 -39 -28 -10 -63
-26 -76 -36 -13 -11 -55 -30 -92 -44 -37 -13 -76 -33 -88 -43 -71 -63 -168
-66 -223 -8 -17 18 -44 40 -61 49 -38 19 -71 63 -79 104 -4 21 1 42 19 73 13
24 30 65 36 91 6 26 20 62 30 80 11 18 27 62 37 98 9 36 30 90 46 120 44 83
30 127 -51 162 -24 10 -56 29 -72 43 -16 13 -39 27 -51 31 -13 4 -42 20 -66
36 -23 16 -57 34 -75 40 -17 6 -56 28 -86 50 -43 30 -63 38 -98 38 -42 0 -47
-3 -148 -107 -129 -133 -118 -122 -191 -191 -34 -32 -66 -68 -73 -80 -17 -32
-95 -82 -128 -82 -16 0 -38 6 -49 14 -11 8 -44 22 -74 31 -137 42 -134 32
-140 377 -5 272 -5 277 -28 301 -25 27 -80 38 -269 57 -56 6 -139 22 -184 35
-102 31 -120 31 -146 3z m-12 -863 c52 -8 166 -26 254 -39 104 -15 182 -33
221 -49 33 -14 97 -32 142 -41 46 -9 113 -29 150 -45 37 -16 91 -34 120 -40
29 -6 69 -22 90 -36 20 -13 56 -31 80 -39 23 -8 57 -26 75 -40 17 -13 52 -30
77 -37 25 -7 63 -25 85 -39 22 -15 60 -36 85 -47 25 -11 56 -32 69 -47 14 -14
30 -26 37 -26 7 0 33 -15 57 -34 25 -19 60 -42 79 -52 18 -9 44 -27 58 -40 48
-43 138 -119 195 -164 169 -132 506 -526 600 -702 13 -26 30 -50 36 -54 6 -3
22 -32 36 -63 14 -31 36 -71 49 -88 14 -18 31 -54 39 -79 7 -25 25 -62 39 -82
13 -21 32 -64 42 -97 9 -33 27 -80 40 -105 13 -25 28 -67 35 -95 6 -27 26 -98
45 -156 19 -60 40 -159 49 -225 8 -66 23 -155 32 -199 25 -116 25 -582 0 -705
-9 -47 -26 -143 -37 -215 -11 -71 -29 -154 -40 -184 -12 -30 -30 -92 -41 -138
-11 -45 -35 -115 -54 -155 -19 -40 -35 -81 -35 -91 0 -10 -18 -52 -40 -93 -22
-42 -40 -81 -40 -87 0 -7 -14 -32 -30 -57 -16 -25 -35 -61 -41 -80 -6 -19 -24
-48 -40 -65 -15 -16 -35 -48 -45 -70 -9 -22 -29 -55 -45 -73 -16 -18 -29 -37
-29 -42 0 -4 -20 -32 -45 -61 -25 -29 -45 -58 -45 -64 0 -18 -103 -140 -220
-260 -102 -105 -324 -305 -338 -305 -8 0 -93 -68 -143 -114 -15 -14 -44 -32
-65 -41 -21 -9 -48 -24 -59 -34 -11 -11 -42 -30 -70 -44 -27 -14 -58 -34 -69
-46 -10 -11 -35 -26 -55 -32 -20 -7 -54 -24 -76 -39 -22 -15 -58 -33 -80 -40
-22 -6 -69 -27 -105 -45 -36 -18 -83 -38 -105 -45 -22 -7 -54 -21 -71 -31 -17
-10 -60 -26 -95 -35 -35 -8 -112 -31 -171 -50 -59 -19 -117 -34 -128 -34 -11
0 -122 -20 -246 -45 l-225 -45 -311 0 c-321 0 -416 8 -608 50 -47 10 -129 26
-182 34 -54 9 -128 27 -165 42 -37 14 -99 32 -138 40 -38 8 -95 27 -125 43
-30 16 -72 34 -93 40 -20 7 -67 28 -103 47 -36 19 -73 34 -82 34 -9 0 -37 14
-62 30 -25 16 -61 35 -80 41 -19 7 -51 24 -70 39 -19 15 -58 39 -87 54 -28 14
-54 30 -58 36 -3 6 -25 20 -47 31 -48 25 -123 79 -181 131 -22 21 -45 38 -49
38 -10 0 -139 114 -260 231 -91 89 -223 236 -296 331 -18 24 -48 63 -67 88
-19 25 -43 61 -53 80 -9 19 -32 55 -50 79 -17 24 -32 49 -32 56 0 7 -14 32
-32 56 -17 24 -40 67 -51 94 -10 28 -30 65 -44 83 -14 19 -32 59 -40 89 -8 31
-27 79 -43 107 -15 28 -34 78 -40 111 -7 33 -23 82 -37 109 -14 28 -32 95 -44
160 -10 61 -28 140 -39 176 -29 91 -39 224 -40 525 0 324 12 470 44 567 14 40
30 111 36 158 7 50 23 112 40 150 16 36 36 96 44 133 9 38 27 87 40 110 13 23
32 66 41 96 10 30 31 75 46 99 16 25 34 61 40 81 6 20 22 47 35 61 13 14 30
45 38 69 9 23 27 56 41 73 14 17 32 46 40 65 8 19 26 44 40 55 14 11 35 36 46
56 21 40 71 107 118 162 17 19 50 57 73 84 24 27 57 62 73 78 17 15 35 32 40
38 6 5 21 20 34 32 12 13 30 30 38 39 47 51 99 98 190 172 28 23 71 58 95 78
24 20 61 45 83 57 22 12 51 33 64 47 13 14 29 25 36 25 6 0 33 16 59 36 25 19
63 42 84 51 20 8 46 23 58 34 11 10 49 30 84 44 35 14 71 32 80 40 9 8 44 26
78 39 34 14 74 33 89 44 16 11 55 25 88 32 33 7 89 26 123 41 35 16 99 35 142
43 43 9 105 25 137 37 76 28 140 41 463 90 199 31 538 32 721 4z"/>
<path d="M4416 7014 c-9 -8 -16 -21 -16 -28 0 -17 33 -46 52 -46 18 0 48 31
48 51 0 37 -55 52 -84 23z"/>
<path d="M4777 7018 c-25 -20 -38 -64 -27 -93 5 -14 14 -25 20 -25 19 0 110
84 110 101 0 29 -71 41 -103 17z"/>
<path d="M5140 7002 c-15 -12 -21 -30 -23 -62 l-2 -45 40 0 c38 0 40 2 43 34
7 72 -19 105 -58 73z"/>
<path d="M4567 6983 c-10 -9 -8 -75 2 -91 5 -8 17 -12 27 -10 28 5 27 75 -2
94 -11 8 -24 11 -27 7z"/>
<path d="M5300 6945 c-20 -25 -19 -99 2 -103 21 -4 50 49 46 86 -4 31 -29 40
-48 17z"/>
<path d="M3857 6923 c-4 -3 -7 -21 -7 -39 0 -41 30 -80 55 -71 14 6 16 14 10
44 -11 63 -35 89 -58 66z"/>
<path d="M5460 6900 c13 -24 35 -27 26 -4 -3 9 -6 18 -6 20 0 2 -7 4 -15 4
-13 0 -14 -4 -5 -20z"/>
<path d="M3591 6856 c-18 -20 -21 -30 -15 -61 11 -59 36 -77 92 -70 101 14
106 31 31 105 -57 56 -76 61 -108 26z"/>
<path d="M5774 6825 c-7 -18 12 -45 32 -45 15 0 18 18 8 44 -8 20 -33 21 -40
1z"/>
<path d="M5495 6820 c-9 -15 2 -45 24 -64 15 -14 24 -15 40 -6 26 13 28 49 4
56 -10 3 -26 10 -35 15 -22 11 -25 11 -33 -1z"/>
<path d="M5852 6708 c4 -43 33 -46 33 -3 0 21 -5 31 -18 33 -15 3 -18 -2 -15
-30z"/>
<path d="M4405 6701 c-49 -4 -142 -19 -205 -33 -63 -15 -147 -31 -186 -37 -39
-6 -93 -22 -120 -35 -27 -14 -81 -32 -121 -40 -40 -8 -92 -26 -115 -40 -24
-13 -68 -31 -98 -40 -30 -9 -73 -29 -95 -45 -22 -15 -55 -33 -72 -39 -18 -6
-52 -24 -75 -40 -24 -16 -54 -33 -67 -37 -13 -4 -44 -22 -68 -41 -25 -19 -49
-34 -54 -34 -5 0 -26 -15 -46 -33 -21 -18 -51 -41 -68 -51 -16 -10 -41 -29
-55 -42 -14 -13 -71 -65 -127 -114 -56 -50 -143 -137 -193 -193 -49 -56 -101
-113 -114 -127 -13 -14 -29 -36 -36 -50 -7 -14 -23 -36 -36 -50 -12 -14 -38
-50 -56 -81 -18 -30 -42 -70 -53 -88 -64 -105 -89 -150 -101 -186 -8 -22 -26
-57 -40 -78 -13 -20 -32 -65 -40 -100 -9 -34 -27 -82 -41 -106 -15 -25 -31
-78 -40 -127 -8 -47 -25 -115 -39 -151 -48 -128 -67 -521 -39 -833 14 -166 25
-221 52 -274 8 -16 19 -61 25 -100 6 -44 22 -98 43 -141 18 -38 37 -89 40
-112 4 -24 18 -60 32 -80 14 -21 34 -63 45 -93 10 -30 27 -63 37 -75 11 -11
30 -45 44 -75 13 -30 32 -61 41 -69 10 -8 26 -32 37 -52 30 -60 115 -173 212
-282 121 -136 378 -371 440 -403 18 -9 47 -30 65 -45 18 -16 37 -29 43 -29 6
0 29 -15 52 -34 23 -18 64 -43 92 -55 27 -12 56 -28 65 -36 9 -8 41 -23 71
-34 30 -10 71 -30 93 -45 21 -14 57 -31 80 -37 22 -6 63 -22 89 -36 27 -13 88
-33 136 -43 48 -11 107 -28 132 -39 24 -11 89 -27 144 -35 55 -9 150 -25 210
-36 215 -38 524 -36 760 6 44 8 123 21 175 29 52 8 122 25 155 38 33 14 90 30
127 36 37 6 100 27 140 46 40 19 78 35 85 35 11 0 153 67 223 106 14 8 53 27
86 43 34 17 70 38 79 48 10 9 39 31 65 47 91 59 159 106 187 131 15 13 46 40
68 59 87 74 314 304 329 334 9 18 20 32 25 32 11 0 115 140 140 187 11 22 27
45 35 52 9 8 25 33 35 57 11 24 31 58 44 76 14 18 28 44 32 58 4 14 22 52 40
85 19 33 39 80 45 105 7 25 23 64 36 86 14 23 31 73 39 111 8 38 26 99 39 135
27 72 48 209 67 449 10 125 10 190 0 325 -17 238 -39 392 -62 444 -11 25 -29
85 -40 134 -10 49 -30 107 -43 130 -13 23 -31 68 -41 101 -9 33 -28 75 -41 93
-14 17 -32 54 -39 80 -8 27 -24 57 -36 68 -12 10 -32 42 -45 69 -33 68 -88
152 -123 189 -16 17 -30 36 -32 43 -4 13 -39 56 -152 183 -90 104 -311 303
-371 337 -11 6 -34 23 -51 38 -43 37 -157 111 -186 120 -13 4 -39 18 -57 32
-18 13 -56 35 -85 49 -28 13 -63 33 -77 44 -14 12 -53 28 -85 36 -33 9 -79 26
-102 40 -23 13 -72 31 -110 39 -37 9 -97 29 -133 45 -43 19 -96 33 -155 40
-49 6 -104 15 -121 20 -95 31 -209 42 -449 45 -137 2 -290 0 -340 -4z m449
-159 c57 -26 75 -27 102 -7 27 21 55 18 116 -10 43 -20 69 -25 138 -25 136 -1
267 -23 335 -58 33 -16 86 -35 117 -41 47 -10 63 -19 87 -48 27 -32 37 -37 90
-44 43 -5 69 -14 91 -32 16 -14 40 -29 52 -33 19 -6 58 -30 201 -127 138 -93
261 -199 286 -244 6 -13 25 -30 42 -38 103 -54 436 -490 454 -595 4 -24 21
-57 41 -81 19 -23 34 -47 34 -54 0 -7 17 -46 39 -87 24 -45 43 -99 50 -142 7
-38 23 -91 37 -118 18 -35 31 -89 44 -186 11 -75 26 -168 34 -207 24 -115 16
-401 -18 -610 -25 -159 -78 -354 -128 -480 -56 -140 -72 -172 -98 -200 -15
-16 -35 -56 -44 -87 -9 -31 -27 -69 -39 -85 -13 -15 -29 -42 -36 -60 -7 -17
-22 -40 -33 -50 -11 -10 -32 -36 -46 -58 -27 -43 -63 -89 -129 -166 -24 -27
-43 -53 -43 -57 0 -4 -27 -30 -61 -57 -33 -28 -97 -86 -143 -130 -83 -81 -202
-173 -300 -232 -15 -10 -54 -35 -85 -55 -31 -21 -61 -38 -67 -38 -6 0 -32 -14
-58 -32 -28 -18 -70 -35 -98 -39 -36 -6 -60 -18 -88 -43 -28 -25 -54 -37 -97
-46 -32 -6 -86 -25 -120 -41 -56 -27 -69 -30 -160 -28 -106 2 -170 -12 -257
-56 -56 -28 -117 -33 -136 -10 -17 20 -48 19 -93 -4 -32 -16 -60 -19 -188 -19
-139 0 -153 2 -195 24 l-46 24 -33 -20 c-43 -27 -81 -25 -141 6 -93 48 -163
64 -265 62 -86 -3 -98 -1 -139 23 -25 15 -65 30 -90 34 -63 10 -105 29 -131
59 -13 15 -41 29 -73 37 -50 12 -207 88 -236 114 -9 8 -34 22 -56 32 -39 17
-61 33 -152 109 -20 17 -56 43 -78 57 -23 14 -68 55 -99 91 -32 36 -73 74 -90
83 -41 23 -259 269 -295 333 -8 15 -25 40 -38 56 -43 54 -106 169 -119 217 -7
29 -24 59 -42 76 -17 15 -34 47 -41 72 -6 24 -23 63 -36 86 -14 24 -33 78 -44
121 -11 44 -31 108 -44 143 -13 36 -29 101 -35 144 -5 44 -18 137 -27 207 -9
72 -13 146 -9 170 8 53 8 100 0 158 -4 27 4 130 19 255 21 171 32 228 61 310
19 55 35 109 35 120 0 11 18 58 40 105 22 47 40 93 40 102 0 10 16 36 36 58
21 23 40 57 45 82 12 53 65 142 154 263 24 33 62 85 84 116 57 80 324 344 427
421 27 21 69 53 94 73 25 19 60 42 79 51 19 9 55 31 79 50 25 19 50 34 57 34
6 0 34 16 61 35 39 28 58 35 95 35 42 0 50 4 76 36 23 29 41 39 102 55 41 11
87 29 103 40 44 32 85 39 256 48 138 7 164 11 216 35 67 30 98 33 117 10 15
-19 49 -15 127 14 76 28 257 25 326 -6z"/>
<path d="M5578 6233 c-24 -6 -23 -50 1 -63 11 -5 38 -10 60 -10 39 0 41 2 41
30 0 17 -6 32 -12 34 -27 8 -74 13 -90 9z"/>
<path d="M3693 6224 c-7 -3 -13 -19 -13 -35 0 -28 2 -29 44 -29 83 0 108 63
26 67 -25 1 -51 0 -57 -3z"/>
<path d="M4092 6078 c-6 -6 -12 -25 -12 -40 0 -24 4 -28 29 -28 34 0 54 20 49
52 -3 26 -45 37 -66 16z"/>
<path d="M5213 6083 c-7 -2 -13 -18 -13 -34 0 -22 6 -32 23 -38 29 -11 57 4
57 32 0 38 -29 56 -67 40z"/>
<path d="M4662 6008 c-18 -18 -14 -56 6 -67 23 -12 42 3 42 34 0 20 -17 45
-30 45 -3 0 -11 -5 -18 -12z"/>
<path d="M3306 5707 c-15 -11 -17 -19 -9 -42 12 -38 28 -42 48 -11 13 19 14
29 5 45 -13 25 -20 26 -44 8z"/>
<path d="M6003 5703 c-8 -20 18 -68 37 -68 8 0 19 13 25 28 8 24 6 31 -10 43
-25 19 -44 18 -52 -3z"/>
<path d="M5384 5546 c-29 -32 -35 -34 -115 -41 -46 -3 -194 -4 -329 -1 -135 2
-256 4 -270 4 -14 -1 -160 -1 -325 -2 -318 -1 -353 3 -376 46 -9 16 -17 19
-42 13 -18 -3 -75 -10 -127 -15 -52 -5 -114 -15 -136 -24 -61 -21 -246 -30
-324 -16 -36 7 -76 12 -90 11 -14 0 -101 -4 -195 -9 -186 -8 -201 -13 -284
-80 -62 -50 -75 -88 -66 -187 9 -110 9 -122 -15 -218 -11 -47 -20 -111 -20
-143 0 -119 34 -138 205 -118 61 7 234 17 385 22 240 8 281 11 325 29 56 23
83 18 109 -19 21 -29 20 -49 -4 -128 -12 -36 -29 -112 -40 -170 -11 -58 -35
-190 -55 -295 -19 -104 -42 -235 -50 -290 -8 -55 -20 -121 -26 -146 -6 -26
-14 -71 -19 -100 -18 -122 -80 -466 -89 -499 -5 -19 -19 -105 -31 -190 -12
-85 -30 -184 -40 -220 -11 -36 -24 -103 -30 -150 -6 -47 -17 -117 -25 -157
-34 -167 -23 -183 126 -183 57 0 131 5 165 10 53 9 71 7 143 -15 90 -27 117
-24 145 17 9 12 16 36 16 53 0 51 28 130 55 155 26 24 26 27 20 120 -6 83 -2
127 34 350 23 141 52 294 65 340 13 47 26 127 30 180 3 52 14 132 25 177 11
45 30 149 41 230 15 106 28 162 46 196 18 37 23 58 18 87 -4 21 1 83 10 137
76 442 87 489 114 497 10 3 434 7 944 8 l926 2 43 -28 c94 -63 138 -142 146
-264 6 -95 -4 -132 -54 -205 -27 -39 -131 -119 -180 -138 -68 -26 -221 -40
-423 -39 -113 1 -338 -1 -500 -4 l-295 -6 -61 -32 c-59 -30 -63 -35 -86 -97
-43 -113 -50 -148 -36 -170 10 -16 10 -31 -1 -73 -7 -29 -16 -92 -21 -139 -9
-91 -14 -118 -54 -314 -13 -66 -27 -142 -31 -170 -3 -27 -17 -95 -30 -150 -13
-55 -28 -141 -34 -192 -10 -77 -35 -202 -72 -353 -5 -19 -9 -56 -9 -82 0 -63
27 -84 97 -73 27 4 106 7 177 6 104 -2 136 -5 166 -21 20 -10 60 -22 87 -26
l51 -6 10 33 c6 19 14 61 18 94 7 63 42 239 69 340 8 33 15 81 15 107 0 27 12
106 26 176 14 70 34 183 44 252 21 141 31 174 58 189 39 21 152 -23 199 -78
27 -31 44 -20 50 31 7 63 4 62 331 69 260 5 306 8 373 26 79 22 154 55 204 89
17 12 49 33 72 48 82 54 205 179 259 263 30 46 54 88 54 93 0 4 23 42 50 83
40 60 50 83 50 117 0 23 12 79 26 125 24 79 25 92 22 261 l-4 179 -42 123
c-23 67 -52 137 -66 155 -13 18 -30 53 -37 78 -12 38 -32 62 -117 142 -56 53
-121 106 -145 118 -23 12 -52 30 -63 41 -30 27 -210 85 -314 102 -61 9 -151
12 -315 8 -219 -4 -233 -3 -277 17 -26 11 -57 21 -70 21 -23 0 -108 21 -138
34 -11 4 -26 -5 -46 -28z"/>
<path d="M2900 4145 c-26 -32 13 -81 48 -59 34 22 22 74 -18 74 -10 0 -23 -7
-30 -15z"/>
<path d="M4649 4144 c-17 -21 0 -48 33 -52 30 -4 43 20 28 49 -13 23 -43 25
-61 3z"/>
<path d="M3025 3250 c-10 -16 23 -60 43 -60 37 0 58 52 26 64 -25 9 -62 7 -69
-4z"/>
<path d="M6262 3248 c-19 -19 -14 -37 14 -50 23 -11 28 -10 40 7 8 11 13 26
12 35 -4 19 -49 25 -66 8z"/>
<path d="M5389 2701 c-25 -20 -21 -47 7 -58 11 -4 24 2 36 16 23 29 23 38 -1
51 -15 7 -25 5 -42 -9z"/>
<path d="M6010 2591 c-14 -27 -13 -68 3 -74 22 -8 57 12 57 33 0 29 -18 60
-35 60 -8 0 -19 -9 -25 -19z"/>
<path d="M4091 2201 c-15 -28 2 -71 29 -71 27 0 48 45 33 68 -15 25 -50 27
-62 3z"/>
<path d="M5212 2208 c-7 -7 -12 -20 -12 -29 0 -19 25 -49 40 -49 18 0 42 49
35 70 -7 22 -44 27 -63 8z"/>
<path d="M3690 2065 c-19 -23 -2 -48 41 -57 44 -9 69 -1 69 21 0 40 -84 67
-110 36z"/>
<path d="M5584 2070 c-28 -11 -38 -40 -21 -57 19 -19 94 -6 107 18 23 41 -26
64 -86 39z"/>
<path d="M3208 6666 c-6 -14 -23 -30 -39 -36 -49 -21 -51 -70 -3 -70 19 0 28
8 39 34 8 18 21 36 30 39 20 8 20 57 0 57 -9 0 -20 -11 -27 -24z"/>
<path d="M6196 6637 c-15 -11 -35 -69 -36 -104 0 -26 39 -12 85 30 39 35 46
47 41 65 -6 17 -15 22 -40 22 -18 0 -40 -6 -50 -13z"/>
<path d="M2877 6503 c-2 -4 1 -26 7 -48 9 -32 17 -41 38 -43 22 -3 29 2 33 21
4 14 5 36 3 48 -2 20 -10 25 -40 27 -20 2 -38 -1 -41 -5z"/>
<path d="M3047 6484 c-13 -13 -7 -52 9 -58 25 -9 56 12 52 37 -3 22 -45 36
-61 21z"/>
<path d="M6495 6464 c-26 -26 -15 -57 24 -67 63 -16 80 10 36 57 -28 30 -38
32 -60 10z"/>
<path d="M2757 6397 c-37 -30 -23 -77 23 -77 36 0 42 10 29 48 -12 35 -31 46
-52 29z"/>
<path d="M6498 6323 c-22 -6 -23 -36 -3 -53 24 -20 67 3 63 33 -3 22 -25 30
-60 20z"/>
<path d="M2643 6303 c-23 -9 -14 -41 18 -68 39 -32 53 -28 57 14 5 50 -28 74
-75 54z"/>
<path d="M6832 6198 c-6 -8 -16 -26 -22 -42 -19 -51 25 -75 71 -37 l23 18 -20
33 c-22 39 -37 46 -52 28z"/>
<path d="M2432 6069 c2 -7 10 -15 17 -17 8 -3 12 1 9 9 -2 7 -10 15 -17 17 -8
3 -12 -1 -9 -9z"/>
<path d="M6985 6020 c-4 -6 -23 -18 -43 -28 -28 -13 -37 -23 -37 -42 0 -24 8
-29 73 -46 7 -2 12 -19 12 -41 0 -21 5 -45 10 -53 8 -13 12 -12 24 6 9 12 29
27 46 34 26 11 31 17 28 43 -2 22 -12 34 -38 48 -26 14 -36 27 -40 51 -5 32
-23 47 -35 28z"/>
<path d="M2196 5924 c-27 -26 -20 -54 17 -69 19 -8 53 -30 76 -49 46 -39 71
-45 91 -21 16 19 -1 42 -33 47 -13 2 -29 17 -39 38 -32 64 -80 87 -112 54z"/>
<path d="M2064 5750 c-30 -12 -39 -42 -18 -57 23 -17 55 -16 79 1 17 12 18 18
7 40 -12 27 -31 31 -68 16z"/>
<path d="M7136 5741 c-65 -7 -79 -20 -47 -48 12 -9 28 -39 37 -65 19 -59 32
-68 56 -37 10 13 32 41 48 61 43 53 36 100 -14 96 -12 -1 -48 -4 -80 -7z"/>
<path d="M2170 5645 c0 -9 7 -18 15 -21 23 -9 45 3 39 21 -8 20 -54 20 -54 0z"/>
<path d="M7273 5494 c-39 -17 -56 -45 -45 -75 8 -21 9 -21 32 11 13 18 38 39
57 46 19 8 31 19 28 24 -8 13 -33 11 -72 -6z"/>
<path d="M2013 5413 c-7 -2 -13 -9 -13 -14 0 -17 40 -49 60 -49 28 0 26 35 -2
54 -24 17 -26 17 -45 9z"/>
<path d="M7353 5330 c-42 -25 -41 -40 1 -84 35 -38 66 -46 85 -22 17 20 -23
126 -48 126 -3 0 -21 -9 -38 -20z"/>
<path d="M1892 5108 c-17 -17 -15 -55 4 -62 48 -18 88 4 82 46 -2 18 -10 24
-38 26 -19 2 -41 -3 -48 -10z"/>
<path d="M7452 5108 c-42 -42 54 -258 116 -258 12 0 22 3 22 6 0 3 -16 26 -35
51 -30 39 -35 54 -35 98 0 84 -9 115 -34 115 -12 0 -27 -5 -34 -12z"/>
<path d="M1791 5031 c-13 -3 -29 -15 -35 -24 -9 -15 -6 -22 13 -38 33 -27 69
-25 83 7 21 44 -8 70 -61 55z"/>
<path d="M1767 4864 c-4 -4 -7 -11 -7 -16 0 -13 50 -6 53 7 2 12 -36 19 -46 9z"/>
<path d="M7543 4683 c-17 -6 -16 -28 1 -42 16 -14 42 -5 51 16 9 25 -21 39
-52 26z"/>
<path d="M1728 4558 c-35 -12 -36 -36 -3 -44 36 -9 55 2 55 31 0 27 -9 29 -52
13z"/>
<path d="M1703 4233 c-44 -8 -23 -73 22 -73 26 0 67 41 57 56 -9 14 -50 22
-79 17z"/>
<path d="M1702 4074 c-15 -10 -22 -24 -20 -37 5 -38 118 -34 118 4 0 9 -58 49
-70 49 -3 0 -16 -7 -28 -16z"/>
<path d="M7680 4055 c0 -8 7 -15 15 -15 8 0 15 4 15 9 0 5 -7 11 -15 15 -9 3
-15 0 -15 -9z"/>
<path d="M1670 3891 c-16 -30 -12 -56 10 -76 12 -11 20 -28 19 -39 -3 -39 1
-46 26 -56 31 -12 85 -2 92 16 9 25 -6 60 -33 75 -15 8 -35 33 -45 56 -20 47
-50 58 -69 24z"/>
<path d="M7633 3688 c-24 -12 -38 -41 -28 -58 7 -11 84 -14 109 -4 19 7 21 45
4 62 -15 15 -55 15 -85 0z"/>
<path d="M7556 3584 c-22 -21 -20 -33 12 -94 32 -59 57 -74 93 -56 39 19 32
57 -15 80 -25 12 -43 30 -52 52 -16 39 -17 39 -38 18z"/>
<path d="M1827 3492 c-21 -23 -21 -31 3 -60 24 -29 46 -26 74 11 16 21 18 32
10 45 -16 25 -66 27 -87 4z"/>
<path d="M1795 3368 c-42 -24 -47 -63 -10 -80 31 -14 72 5 88 39 19 43 -30 68
-78 41z"/>
<path d="M7508 3354 c-9 -3 -19 -11 -21 -19 -10 -26 17 -44 76 -51 l57 -7 0
31 c0 17 -4 33 -8 36 -14 8 -85 15 -104 10z"/>
<path d="M1895 3145 c-27 -30 -51 -57 -53 -59 -8 -10 21 -48 43 -56 37 -14 60
-1 83 46 24 50 28 94 10 112 -20 20 -30 14 -83 -43z"/>
<path d="M7537 3193 c-12 -11 -7 -63 6 -64 40 -4 57 10 57 49 0 18 -6 22 -28
22 -16 0 -32 -3 -35 -7z"/>
<path d="M7391 3072 c-6 -11 -6 -24 1 -36 6 -10 10 -41 10 -68 0 -29 6 -55 15
-63 21 -21 67 -18 88 5 18 19 18 22 1 56 -18 39 -86 124 -98 124 -4 0 -12 -8
-17 -18z"/>
<path d="M2000 3017 c0 -18 28 -42 37 -33 9 8 -9 38 -25 44 -7 2 -12 -3 -12
-11z"/>
<path d="M2146 2698 l-50 -51 44 6 c29 4 51 14 62 27 21 26 22 31 6 53 -12 14
-18 10 -62 -35z"/>
<path d="M7295 2699 c-15 -22 4 -56 35 -62 57 -12 107 25 80 58 -15 17 -105
21 -115 4z"/>
<path d="M7139 2573 c-15 -40 2 -70 45 -78 19 -4 39 -4 45 0 32 19 -13 105
-55 105 -17 0 -27 -8 -35 -27z"/>
<path d="M2247 2515 c-13 -14 -36 -29 -53 -34 -22 -5 -30 -14 -32 -35 -8 -63
52 -75 80 -15 9 20 33 46 52 57 24 14 34 26 30 37 -9 23 -50 18 -77 -10z"/>
<path d="M7010 2328 c0 -23 59 -138 70 -138 14 0 52 85 48 107 -2 11 -22 22
-53 30 -62 16 -65 16 -65 1z"/>
<path d="M4634 1405 c-4 -8 1 -33 10 -55 9 -22 16 -49 16 -60 0 -31 19 -33 31
-3 28 74 34 114 19 123 -23 15 -70 12 -76 -5z"/>
<path d="M4910 1395 c-12 -15 -9 -16 31 -13 50 3 59 21 13 26 -19 2 -36 -3
-44 -13z"/>
<path d="M5060 1314 c0 -16 5 -24 13 -22 18 7 20 35 2 41 -11 5 -15 0 -15 -19z"/>
<path d="M4390 1266 c0 -24 31 -47 58 -44 31 4 38 20 17 42 -21 20 -75 22 -75
2z"/>
<path d="M4907 1254 c-11 -12 3 -24 29 -24 16 0 24 5 22 13 -5 13 -40 22 -51
11z"/>
</g>
</svg>
