<?xml version="1.0" standalone="no"?>
<!DOCTYPE svg PUBLIC "-//W3C//DTD SVG 20010904//EN" "http://www.w3.org/TR/2001/REC-SVG-20010904/DTD/svg10.dtd">
<svg version="1.0" xmlns="http://www.w3.org/2000/svg" width="80" height="40" viewBox="0 0 705.000000 297.000000"
    preserveAspectRatio="xMidYMid meet">
    <g transform="translate(0.000000,297.000000) scale(0.100000,-0.100000)" fill="#000000" stroke="none">
        <path d="M824 2141 c-66 -49 -472 -464 -484 -495 -21 -55 -1 -80 268 -349
            l258 -257 54 0 c39 0 66 7 92 23 20 12 221 203 447 425 269 264 417 402 431
            402 30 0 25 13 -20 54 -44 40 -81 53 -111 40 -11 -5 -87 -77 -169 -159 l-149
            -150 -249 248 c-242 240 -250 247 -289 247 -28 0 -51 -8 -79 -29z m317 -294
            c58 -28 117 -81 101 -91 -5 -3 -29 9 -53 28 -65 49 -118 66 -208 66 -67 0 -86
            -4 -139 -30 -66 -33 -118 -85 -154 -152 -20 -37 -23 -58 -23 -143 0 -122 15
            -156 113 -257 52 -54 61 -68 45 -68 -28 0 -133 114 -163 176 -31 67 -39 182
            -16 256 33 102 119 191 224 231 72 27 202 19 273 -16z m-45 -105 c52 -27 209
            -186 199 -202 -5 -8 -40 21 -104 83 -109 107 -141 123 -232 113 -37 -3 -59 -2
            -59 4 0 35 131 35 196 2z m278 -122 c-13 -13 -59 34 -49 50 5 8 15 4 33 -14
            18 -18 23 -29 16 -36z m-564 42 c0 -5 -7 -23 -16 -41 -24 -47 -28 -105 -13
            -158 10 -38 31 -67 102 -140 56 -58 84 -94 77 -98 -15 -9 -153 125 -185 180
            -43 73 -45 167 -5 233 18 30 40 43 40 24z m238 -26 c43 -23 175 -162 167 -176
            -5 -7 -37 18 -95 74 -85 83 -89 86 -134 86 -65 0 -96 -31 -96 -96 0 -43 4 -50
            66 -114 43 -44 61 -70 54 -75 -14 -8 -114 86 -136 127 -31 58 -9 144 44 172
            35 19 95 20 130 2z m21 -172 c39 -42 68 -81 65 -86 -4 -6 -42 25 -85 68 -70
            69 -85 94 -59 94 4 0 40 -34 79 -76z" />
        <path d="M1473 1459 c-224 -220 -425 -411 -448 -424 -22 -12 -58 -26 -79 -30
            l-39 -7 148 -148 c176 -176 216 -202 325 -208 60 -3 87 0 132 18 52 19 86 50
            415 381 197 198 364 372 371 386 29 54 12 78 -171 261 -161 160 -176 172 -210
            172 -35 0 -57 -19 -444 -401z" />
        <path d="M3146 1758 c-107 -61 -108 -62 -88 -79 21 -16 26 -15 121 20 55 20
            102 39 106 43 4 3 -2 22 -12 42 l-18 35 -109 -61z" />
        <path d="M3455 1783 c4 -10 47 -124 96 -252 50 -129 99 -250 110 -267 13 -21
            42 -44 81 -63 71 -36 83 -38 93 -13 10 25 205 594 205 598 0 2 -29 4 -65 4
            -62 0 -65 -1 -55 -19 5 -11 10 -30 10 -42 0 -19 -111 -344 -129 -377 -5 -8
            -41 81 -87 215 l-79 228 -94 3 c-86 3 -93 1 -86 -15z" />
        <path d="M4095 1757 c25 -44 25 -45 25 -278 0 -216 -2 -237 -20 -266 l-20 -33
            86 0 85 0 -21 29 c-19 28 -20 41 -18 198 l3 167 137 -176 c119 -153 144 -179
            189 -202 29 -14 63 -26 76 -26 l23 0 0 276 c0 263 1 278 21 310 l21 34 -81 0
            -80 0 20 -34 c18 -30 19 -49 17 -191 l-3 -158 -153 197 -153 196 -90 0 -90 0
            26 -43z" />
        <path d="M2464 1768 c8 -13 51 -125 96 -249 45 -125 91 -241 101 -259 12 -19
            39 -40 72 -55 102 -47 85 -70 203 275 57 168 104 306 104 308 0 1 -34 2 -77 2
            -73 0 -75 -1 -60 -18 10 -10 17 -29 17 -41 0 -13 -28 -107 -61 -209 l-62 -187
            -42 120 c-24 66 -58 168 -76 227 l-34 108 -98 0 -97 0 14 -22z" />
        <path d="M4753 1772 c15 -16 17 -51 17 -281 0 -224 -2 -265 -16 -286 l-16 -25
            111 0 c61 0 111 3 111 8 0 4 -7 16 -15 26 -12 16 -15 64 -15 258 0 226 1 238
            19 238 31 0 70 -39 82 -82 14 -54 -3 -123 -39 -161 l-27 -28 55 7 c101 12 150
            48 171 127 13 50 5 101 -26 148 -40 61 -70 69 -261 69 -161 0 -167 -1 -151
            -18z" />
        <path d="M5301 1762 c8 -24 -3 -66 -76 -278 -47 -137 -94 -261 -105 -276 l-21
            -28 81 0 c44 0 80 2 80 5 0 3 -5 14 -12 25 -10 15 -8 32 8 87 l19 68 105 3
            106 3 17 -48 c19 -55 22 -96 7 -124 -10 -18 -6 -19 115 -19 l126 0 -29 43
            c-17 23 -74 160 -128 305 l-97 262 -103 0 -103 0 10 -28z m117 -211 c17 -48
            32 -91 32 -95 0 -3 -32 -6 -71 -6 -53 0 -70 3 -67 13 3 6 17 49 33 95 16 45
            31 82 34 82 3 0 21 -40 39 -89z" />
        <path d="M5691 1718 c28 -40 78 -113 112 -162 l62 -90 1 -115 c2 -88 -2 -122
            -13 -139 -8 -13 -13 -26 -10 -28 2 -3 55 -3 117 -2 l112 3 -21 27 c-18 23 -21
            40 -21 133 0 58 5 115 11 126 5 11 54 82 108 157 53 75 100 143 104 150 6 9
            -12 12 -82 12 l-91 0 10 -26 c7 -19 6 -33 -6 -56 -14 -27 -75 -118 -95 -141
            -3 -5 -39 43 -78 107 l-72 116 -100 0 -100 0 52 -72z" />
        <path d="M3148 1613 l-88 -4 15 -23 c13 -20 15 -54 13 -192 -2 -93 -7 -177
            -12 -186 -7 -17 0 -18 93 -18 97 0 101 1 91 19 -6 12 -10 100 -10 215 0 108
            -3 195 -7 194 -5 -1 -47 -4 -95 -5z" />
    </g>
    <!-- Text elements -->
    <text x="15" y="25" font-family="Arial" font-size="12" fill="blue">VNPAY</text>
</svg>
